<?xml version="1.0" encoding="utf-8"?>
<!-- Generator: Adobe Illustrator 23.0.2, SVG Export Plug-In . SVG Version: 6.00 Build 0)  -->
<svg version="1.1" id="Layer_1" xmlns="http://www.w3.org/2000/svg" xmlns:xlink="http://www.w3.org/1999/xlink" x="0px" y="0px"
	 viewBox="0 0 500 500" style="enable-background:new 0 0 500 500;" xml:space="preserve">
<style type="text/css">
	.st0{fill:#E6E6E6;}
	.st1{fill:#FFFFFF;}
	.st2{fill:#B3B3B3;}
	.st3{fill:#D9E021;}
	.st4{fill:#22B573;}
	.st5{fill:#808080;}
	.st6{fill:#666666;}
	.st7{fill:#202020;}
	.st8{fill:#999999;}
	.st9{fill:none;stroke:#B3B3B3;stroke-width:2.8346;stroke-miterlimit:10;}
	.st10{fill:#66B4E3;}
	.st11{fill:#AA9CC9;}
	.st12{fill:#F47477;}
	.st13{fill:#E50065;}
	.st14{clip-path:url(#SVGID_2_);}
</style>
<g>
	<g>
		<g id="_x36_67_x2C__Heart_x2C__Love_x2C__Pen_x2C__Wedding_6_">
			<g>
				<path d="M360.85,141.39c-16.38,0-30.35,13.49-30.35,30.36c0,175.88,0,169.13,0,170.09c0.48,0.96-0.97-1.45,20.72,43.85h-47.7
					c-1.45,0-2.89-1.45-2.89-2.89c0-8.19-6.75-14.94-14.94-14.94h-63.12c-3.38,0-6.27-2.89-6.27-6.27c0-3.37,2.89-6.26,6.27-6.26
					h58.78c10.6,0,19.76-8.67,19.76-19.76c0-11.08-9.16-19.76-20.24-19.76c-61.68,1.45-109.38,12.04-139.25-17.83
					c-16.87-16.86-16.87-43.85,0-60.23c13.97-13.97,27.94-15.9,53.97-7.23c4.82,1.45,9.15-2.89,7.71-7.71
					c-8.67-26.02-7.23-39.51,6.75-53.97c16.38-16.87,44.33-16.87,60.71-0.48c24.09,24.09,22.17,59.75,19.76,105.04v2.89
					c0,3.37,2.41,6.26,5.78,6.26c3.38,0,6.27-2.41,6.27-5.78c1.45-22.17,2.89-46.26,0-66.5c-2.89-21.68-10.12-37.58-23.13-50.59
					c-10.12-10.12-24.09-15.9-38.55-15.9c-17.35,0-33.25,7.71-44.81,22.65c-0.97-0.96-1.93-1.45-2.89-1.93
					c0.48-2.41,0.48-5.78-0.97-9.15c-3.38-7.23-12.05-10.6-19.27-7.23c-10.6,4.82-12.05,16.86-16.38,27.95
					c-0.97,2.89,0.48,6.75,3.37,7.71c9.64,3.86,17.35,8.67,26.02,8.19c-0.48,6.75,0.49,14.45,2.41,23.61
					c-22.16-5.78-39.03-2.89-55.41,13.49c-21.2,21.2-21.2,55.89,0,77.58c34.21,34.21,85.29,23.13,147.93,21.68
					c4.34,0,7.71,3.37,7.71,7.71c0,4.34-3.37,7.71-7.71,7.71h-58.3c-10.12,0-18.31,8.19-18.31,18.31c0,10.12,8.19,18.31,18.31,18.31
					h63.12c1.45,0,2.89,1.45,2.89,2.89c0,8.19,6.75,14.94,14.94,14.94c61.19,0,57.34,0,58.3,0c1.93-0.48,3.37-1.45,4.34-3.37
					c0,0,24.09-51.56,24.57-52.04c0.49-1.93,0,9.16,0.49-170.57C391.21,154.88,377.72,141.39,360.85,141.39z M169.55,175.6
					c2.89-8.19,3.86-13.97,7.71-15.9c1.45-0.48,2.89,0,3.37,1.45c0.48,0.97,0.48,1.45-1.45,4.34c-2.89,3.85-0.48,9.64,4.34,9.64
					c3.37,0,3.85,0.48,4.34,1.45c0.48,1.45,0,2.89-1.45,3.37c-0.97,0.48-1.45,0.48-2.41,0.48
					C180.64,180.9,174.85,178.01,169.55,175.6z M360.85,377.49l-14.46-31.32h29.39L360.85,377.49z M343.02,334.13V207.88h12.05
					v126.72h-12.05V334.13z M343.02,195.84v-6.27h36.14v6.27H343.02z M367.12,334.13V207.88h12.05v126.72h-12.05V334.13z
					 M360.85,153.43c10.12,0,18.31,8.19,18.31,18.31v6.26h-36.14v-6.26C343.02,161.63,350.73,153.43,360.85,153.43z"/>
				<path d="M174.37,343.28c3.46,0,6.26,2.8,6.26,6.27c0,3.46-2.8,6.26-6.26,6.26c-3.46,0-6.27-2.8-6.27-6.26
					C168.11,346.09,170.92,343.28,174.37,343.28z"/>
				<path d="M246.65,391.47c3.46,0,6.27,2.8,6.27,6.26c0,3.46-2.8,6.26-6.27,6.26c-3.46,0-6.26-2.8-6.26-6.26
					C240.39,394.27,243.19,391.47,246.65,391.47z"/>
				<path d="M294.84,288.83c3.46,0,6.27,2.81,6.27,6.27s-2.81,6.26-6.27,6.26c-3.46,0-6.27-2.8-6.27-6.26
					S291.38,288.83,294.84,288.83z"/>
				<path d="M297.73,168.37l10.6,10.6c2.41,2.41,6.27,2.41,8.67,0c2.41-2.41,2.41-6.27,0-8.67l-6.26-6.26l6.26-6.27
					c2.41-2.41,2.41-6.26,0-8.67l-6.26-6.26l6.26-6.26c2.41-2.41,2.41-6.26,0-8.67c-2.41-2.41-6.26-2.41-8.67,0l-10.6,10.6
					c-2.41,2.41-2.41,6.26,0,8.67l6.27,6.26l-6.27,6.26C295.8,162.11,295.8,165.96,297.73,168.37z"/>
				<path d="M145.46,373.64l-5.78-1.45l4.34-4.34c3.38-3.37,1.45-9.16-2.89-10.12l-20.24-3.86c-3.37-0.48-6.26,1.45-7.23,4.82
					c-0.49,3.37,1.45,6.26,4.82,7.23l9.16,1.93l-3.86,3.85c-3.37,2.89-1.93,8.67,2.9,9.64c16.86,4.34,16.38,4.34,17.34,4.34
					c2.89,0,5.3-1.93,5.79-4.34C150.76,377.98,148.84,374.6,145.46,373.64z"/>
				<path d="M220.63,195.84c11.57-11.56,30.84-12.05,42.41-0.48c2.41,2.41,6.26,2.41,8.67,0c2.41-2.41,2.41-6.26,0-8.67
					c-16.38-16.38-43.37-16.38-59.75,0.48c-2.41,2.41-2.41,6.26,0,8.67c0.96,0.96,2.89,1.93,4.34,1.93
					C217.74,197.28,219.67,196.8,220.63,195.84z"/>
				<path d="M186.42,373.64c-10.12,0-18.31,8.19-18.31,18.31c0,10.12,8.19,18.31,18.31,18.31c10.12,0,18.31-8.19,18.31-18.31
					C204.73,381.83,196.06,373.64,186.42,373.64z M186.42,397.73c-3.38,0-6.27-2.89-6.27-6.26c0-3.37,2.89-6.27,6.27-6.27
					c3.37,0,6.26,2.89,6.26,6.27C192.2,394.84,189.79,397.73,186.42,397.73z"/>
				<path d="M131.97,198.73c3.46,0,6.27,2.8,6.27,6.26c0,3.46-2.81,6.27-6.27,6.27c-3.46,0-6.26-2.81-6.26-6.27
					C125.71,201.53,128.51,198.73,131.97,198.73z"/>
				<path d="M139.68,173.19c2.89,0.96,6.75-0.48,7.71-3.37c4.82-12.05,12.05-22.65,7.23-34.21c-2.41-5.3-8.19-9.15-13.97-9.15
					c-5.3,0-11.08,2.89-13.49,8.19c-3.38-0.96-6.75-0.48-9.64,0.96c-7.71,3.38-11.09,12.53-7.71,20.24
					c3.86,8.67,12.53,11.57,21.68,14.46C133.9,171.26,136.79,172.23,139.68,173.19z M120.41,151.02c-0.97-1.45,0-3.85,1.45-4.34
					c0.48-0.48,0.97-0.48,1.45-0.48c0.97,0,1.93,0.48,3.86,1.93c3.86,2.89,9.64,0.48,9.64-4.34c0-4.34,0.97-4.34,1.93-4.82
					c1.93-0.96,3.86,0,4.34,1.45c1.93,4.82-1.45,10.6-5.3,19.76c-1.45-0.48-2.41-0.97-3.38-0.97
					C126.67,156.33,121.85,154.88,120.41,151.02z"/>
				<path d="M162.33,265.22h42.4c3.38,0,6.27-2.89,6.27-6.26c0-3.37-2.89-6.26-6.27-6.26h-42.4c-3.38,0-6.27,2.89-6.27,6.26
					C156.06,262.33,158.95,265.22,162.33,265.22z"/>
				<path d="M162.33,283.05h66.49c3.38,0,6.27-2.89,6.27-6.26c0-3.37-2.89-6.27-6.27-6.27h-66.49c-3.38,0-6.27,2.89-6.27,6.27
					C156.06,280.16,158.95,283.05,162.33,283.05z"/>
				<path d="M162.33,301.36h108.41c3.38,0,6.27-2.89,6.27-6.26c0-3.37-2.89-6.27-6.27-6.27H162.33c-3.38,0-6.27,2.89-6.27,6.27
					C156.06,298.47,158.95,301.36,162.33,301.36z"/>
			</g>
		</g>
	</g>
</g>
</svg>
