<?xml version="1.0" encoding="utf-8"?>
<!-- Generator: Adobe Illustrator 23.0.2, SVG Export Plug-In . SVG Version: 6.00 Build 0)  -->
<svg version="1.1" id="Layer_1" xmlns="http://www.w3.org/2000/svg" xmlns:xlink="http://www.w3.org/1999/xlink" x="0px" y="0px"
	 viewBox="0 0 1894 402" style="enable-background:new 0 0 1894 402;" xml:space="preserve">
<style type="text/css">
	.st0{fill:#E6E6E6;}
	.st1{fill:#FFFFFF;}
	.st2{fill:#B3B3B3;}
	.st3{fill:#D9E021;}
	.st4{fill:#22B573;}
	.st5{fill:#808080;}
	.st6{fill:#666666;}
	.st7{fill:#202020;}
	.st8{fill:#999999;}
	.st9{fill:none;stroke:#B3B3B3;stroke-width:2.8346;stroke-miterlimit:10;}
	.st10{fill:#66B4E3;}
	.st11{fill:#AA9CC9;}
	.st12{fill:#F47477;}
	.st13{fill:#E50065;}
	.st14{clip-path:url(#SVGID_2_);}
</style>
<g>
	<g>
		<path d="M573.29,286.18c0,6.16-2.96,7.88-8.87,7.88h-76.14c-6.16,0-9.36-3.7-9.36-11.09c0.25-10.84,0.25-137.98,0.25-143.65
			c0.25-12.57,5.17-12.81,17-12.81h71.21c7.15,0,7.15,3.7,7.15,11.58c0,6.9-5.17,7.15-10.59,7.15h-65.3c-0.25,0-0.49,0.49-0.49,1.23
			v43.37h67.02c6.41,0,9.36,5.42,9.36,10.1c0,1.97-0.49,3.7-1.48,5.17c-1.97,3.45-8.13,3.45-11.33,3.45h-60.86
			c-2.71,0-3.2,0.25-3.2,4.44v62.83c0,0,0-0.25,8.38-0.25c8.38,0,24.89,0.25,58.15,0.25C570.58,276.07,573.29,280.26,573.29,286.18z
			"/>
		<path d="M564.42,295.48h-76.14c-6.95,0-10.78-4.44-10.78-12.51c0.24-10.55,0.25-130.06,0.25-143.65
			c0.28-14.23,7.11-14.23,18.42-14.23h71.21c8.56,0,8.56,5.17,8.56,13c0,8.56-7.23,8.56-12.01,8.56h-64.37v41.76h65.6
			c7.08,0,10.78,5.79,10.78,11.52c0,2.25-0.58,4.25-1.72,5.96c-2.33,4.08-8.95,4.08-12.51,4.08h-60.86c-0.33,0-1.32,0-1.53,0.13
			c-0.11,0.14-0.26,0.78-0.26,2.89v61.27c1.47-0.07,3.81-0.1,6.96-0.1c2.8,0,6.51,0.03,11.46,0.06c9.78,0.07,24.55,0.18,46.7,0.18
			c6.71,0.26,10.53,4.55,10.53,11.77C574.71,294.37,569.51,295.48,564.42,295.48z M496.17,127.93c-11.49,0-15.36,0-15.58,11.42
			c0,13.57-0.01,133.1-0.25,143.65c0,8.64,4.54,9.64,7.95,9.64h76.14c5.64,0,7.45-1.57,7.45-6.47c0-5.73-2.61-8.73-7.75-8.93
			c-0.1,0-0.21,0-0.31,0c-21.93,0-36.61-0.11-46.35-0.18c-4.93-0.04-8.64-0.06-11.43-0.06c-6.82,0-7.9,0.17-8,0.19
			c0.42-0.08,1.04-0.57,1.04-1.36h-2.83V213c0-4.39,0.67-5.85,4.62-5.85h60.86c2.77,0,8.54,0,10.1-2.73
			c0.89-1.33,1.29-2.77,1.29-4.47c0-3.49-2.12-8.68-7.95-8.68h-68.44v-44.78c0-1.83,0.96-2.65,1.91-2.65h65.3
			c6.47,0,9.18-0.8,9.18-5.73c0-8.39-0.19-10.16-5.73-10.16H496.17z"/>
	</g>
	<g>
		<path d="M644,131.68h3.2c47.31,0,98.56,22.18,98.56,81.8c0,53.22-48.79,82.54-96.34,82.54h-2.96
			c-8.62-0.25-16.51-4.44-16.51-16.51V144.99C629.96,136.61,635.13,131.93,644,131.68z M726.79,213.49v-1.73
			c0-34.25-29.57-61.35-71.7-61.35h-2.22c-1.48,0-3.45,0.74-3.45,2.96v53.71c0,20.94,0.49,43.37,0.49,68.99
			c0,0.74,0.74,0.99,2.22,0.99C685.64,276.81,725.56,253.41,726.79,213.49z"/>
		<path d="M649.42,297.45h-2.96c-11.41-0.33-17.93-6.86-17.93-17.93V144.99c0-9.08,5.62-14.45,15.42-14.72l0.04,0h3.2
			c26.28,0,50.37,6.67,67.83,18.79c21.03,14.6,32.15,36.88,32.15,64.43C747.18,268.02,696.81,297.45,649.42,297.45z M644.02,133.1
			c-8.16,0.23-12.65,4.45-12.65,11.89v134.53c0,12.12,8.23,14.9,15.13,15.09l2.92,0c46.02,0,94.92-28.43,94.92-81.13
			c0-59.33-52.33-80.39-97.14-80.39H644.02z M652.14,278.48c-2.42,0-3.64-0.81-3.64-2.4c0-13.45-0.13-25.91-0.27-37.96
			c-0.12-10.84-0.23-21.08-0.23-31.03v-53.71c0-3.01,2.52-4.37,4.87-4.37h2.22c20.49,0,39.16,6.46,52.58,18.18
			c13.24,11.57,20.54,27.4,20.54,44.59v1.77C726.98,253.31,687.77,278.21,652.14,278.48z M651.33,275.6
			c0.17,0.02,0.43,0.04,0.8,0.04c34.3-0.25,72.05-24.09,73.24-62.17v-1.7c0-34.17-30.22-59.94-70.29-59.94h-2.22
			c-0.48,0-2.03,0.11-2.03,1.54v53.71c0,9.94,0.11,20.17,0.23,31C651.2,250,651.33,262.32,651.33,275.6z"/>
	</g>
	<g>
		<path d="M917.99,187.62c0,21.44-1.48,41.64-5.42,58.15c-5.67,24.15-26.61,52.48-55.93,52.48c-32.03,0-53.22-28.34-59.14-52.48
			c-3.94-16.02-5.67-34.99-5.67-54.21v-49.77c0-6.41,3.45-10.1,10.1-10.1c7.64,0,10.1,3.94,10.1,11.83v40.66
			c0,26.12,2.22,49.03,8.87,67.76c6.41,13.55,18.23,27.84,34.25,27.84c16.51,0,28.83-13.06,34.25-27.84
			c6.41-17.49,8.38-39.18,8.38-63.57v-44.84c0-7.88,2.22-11.83,10.35-11.83c6.65,0,9.86,4.19,9.86,11.83V187.62z"/>
		<path d="M856.64,299.67c-31.11,0-53.99-26.95-60.51-53.56c-3.73-15.17-5.71-34.03-5.71-54.55v-49.77c0-7.32,4.2-11.52,11.52-11.52
			c10.21,0,11.52,7.08,11.52,13.24v40.66c0,28.99,2.79,50.35,8.76,67.22c3.04,6.42,14.27,26.97,32.94,26.97
			c17.01,0,28.37-14.5,32.92-26.91c5.66-15.45,8.29-35.49,8.29-63.08v-44.84c0-6.88,1.42-13.24,11.77-13.24
			c7.27,0,11.27,4.7,11.27,13.24v44.11c0,23.63-1.84,43.31-5.46,58.48C907.86,272.06,885.7,299.67,856.64,299.67z M801.94,133.1
			c-5.76,0-8.69,2.92-8.69,8.69v49.77c0,20.29,1.95,38.92,5.63,53.87c6.26,25.55,28.11,51.4,57.76,51.4
			c27.6,0,48.71-26.48,54.55-51.39c3.57-14.96,5.38-34.41,5.38-57.83v-44.11c0-7-2.76-10.41-8.44-10.41
			c-6.76,0-8.93,2.53-8.93,10.41v44.84c0,27.94-2.69,48.29-8.46,64.06c-4.87,13.27-17.11,28.77-35.58,28.77
			c-13.77,0-27.05-10.71-35.53-28.66l-0.05-0.13c-6.11-17.19-8.95-38.87-8.95-68.23v-40.66C810.62,135.83,808.35,133.1,801.94,133.1
			z"/>
	</g>
	<g>
		<path d="M1086.28,239.36c4.93,0,9.36,2.71,9.36,7.15c0,0.49-0.25,0.99-0.25,1.48c-2.71,11.33-9.12,20.45-15.77,28.09
			c-11.09,13.31-27.35,21.44-45.83,21.44c-44.35,0-76.14-41.89-76.14-84.51v-0.99c0.49-44.6,32.77-85.25,75.4-85.25
			c31.29,0,55.69,18.23,62.58,45.58c0.74,2.96,1.23,5.67,1.23,9.36c0,4.19-3.7,6.41-8.13,6.41c-3.7,0-7.64-1.48-9.12-5.67
			c-5.42-17.49-20.21-37.21-45.83-37.21c-32.28,0-55.93,35.73-56.67,67.51v0.99c0,33.02,26.61,63.08,54.7,64.06h2.96
			c19.96,0,33.51-14.04,40.66-31.54C1077.9,241.09,1082.33,239.36,1086.28,239.36z"/>
		<path d="M1033.79,298.93c-21.23,0-41.04-9.51-55.78-26.77c-13.84-16.21-21.78-37.77-21.78-59.16v-0.99
			c0.24-22.07,8.35-44.03,22.24-60.27c14.56-17.02,33.94-26.4,54.58-26.4c31.71,0,56.81,18.31,63.96,46.65
			c0.77,3.06,1.28,5.89,1.28,9.71c0,4.68-3.84,7.82-9.55,7.82c-5.08,0-8.99-2.47-10.45-6.61c-5.44-17.56-19.97-36.26-44.49-36.26
			c-14.5,0-28.36,7.56-39.04,21.29c-9.79,12.58-15.85,29.34-16.21,44.84v0.95c0,31.81,25.42,61.67,53.33,62.65l2.91,0
			c17.05,0,31.39-11.17,39.34-30.66c2.37-4.97,6.78-7.78,12.15-7.78c6.15,0,10.78,3.68,10.78,8.56c0,0.42-0.09,0.79-0.17,1.08
			c-0.04,0.14-0.08,0.32-0.08,0.4l-0.04,0.33c-3.02,12.64-10.63,22.43-16.08,28.69C1068.92,291.13,1052.26,298.93,1033.79,298.93z
			 M1033.06,128.17c-40.28,0-73.47,37.62-73.98,83.85V213c0,40.13,30.02,83.1,74.72,83.1c17.61,0,33.5-7.43,44.74-20.93
			c5.26-6.04,12.55-15.41,15.45-27.38c0.02-0.34,0.1-0.64,0.16-0.89c0.04-0.14,0.08-0.32,0.08-0.4c0-3.72-4.09-5.73-7.95-5.73
			c-2.49,0-7.04,0.79-9.56,6.09c-8.38,20.53-23.68,32.35-41.94,32.35h-2.96c-29.39-1.03-56.12-32.24-56.12-65.48v-0.99
			c0.76-32.62,24.8-68.93,58.09-68.93c26.06,0,41.46,19.73,47.18,38.2c1.49,4.21,5.93,4.67,7.76,4.67c3.1,0,6.71-1.31,6.71-4.99
			c0-3.53-0.48-6.16-1.19-9.02C1087.45,145.65,1063.42,128.17,1033.06,128.17z"/>
	</g>
	<g>
		<path d="M1272.3,290.37l-11.83-23.41c-5.67-11.33-13.06-27.1-20.7-41.89c-20.94,0-25.63,0-60.37,0.25
			c-10.6,21.19-21.93,42.38-34,65.3c-1.48,2.22-3.94,5.67-7.88,6.16h-0.99c-5.17,0-10.1-3.45-10.1-8.62c0-1.23,0.25-2.71,0.99-4.19
			l11.83-24.39c6.65-13.8,15.28-31.29,24.15-48.54c11.58-23.16,25.63-51.25,37.95-76.63c0.99-3.45,5.67-5.67,9.61-5.67
			c3.2,0,6.41,2.22,8.13,4.68c21.44,47.55,44.6,97.82,70.96,148.82c0.74,1.97,1.23,3.7,1.23,5.42c0,4.93-3.2,8.87-9.12,9.12
			C1277.72,296.77,1274.77,295.05,1272.3,290.37z M1210.46,158.3c-7.64,15.77-14.78,32.03-22.92,48.54c13.31,0,25.38,0,44.35-0.49
			C1223.02,186.14,1217.85,175.3,1210.46,158.3z"/>
		<path d="M1137.61,298.19h-1.07c-5.66,0-11.52-3.76-11.52-10.04c0-1.16,0.2-2.95,1.13-4.82l11.82-24.38
			c7.9-16.39,16.48-33.64,24.16-48.57l0.05-0.1c11.38-22.77,25.55-51.09,37.83-76.4c1.27-4.12,6.53-6.57,10.93-6.57
			c3.86,0,7.45,2.66,9.29,5.29l0.13,0.23c21.11,46.83,44.32,97.27,70.93,148.76l0.07,0.15c0.69,1.83,1.32,3.82,1.32,5.92
			c0,6.04-4.21,10.27-10.48,10.53c0,0,0,0,0,0c-5.2,0-8.52-2.14-11.16-7.16l-0.01-0.02l-11.83-23.41
			c-2.12-4.24-4.49-9.11-6.99-14.27c-4.07-8.37-8.66-17.82-13.3-26.84c-19.81,0-25.16,0-58.63,0.24
			c-8.49,16.94-17.42,33.85-26.87,51.74c-2.23,4.22-4.48,8.48-6.76,12.81l-0.07,0.13c-1.34,2.01-4.12,6.19-8.89,6.78L1137.61,298.19
			z M1273.56,289.71c2.14,4.06,4.55,5.64,8.6,5.64c4.73-0.2,7.7-3.15,7.7-7.7c0-1.32-0.32-2.73-1.11-4.85
			c-26.6-51.47-49.8-101.88-70.9-148.69c-1.4-1.93-4.12-3.97-6.9-3.97c-3.34,0-7.45,1.86-8.25,4.64l-0.09,0.23
			c-12.3,25.35-26.5,53.73-37.9,76.53l-0.06,0.11c-7.67,14.92-16.25,32.15-24.14,48.52l-11.83,24.4c-0.7,1.4-0.84,2.71-0.84,3.57
			c0,4.51,4.42,7.21,8.68,7.21h0.89c2.99-0.41,5.02-2.86,6.76-5.47c2.27-4.31,4.51-8.55,6.73-12.75
			c9.59-18.15,18.64-35.28,27.23-52.46l0.39-0.78l0.87-0.01c34.75-0.25,39.67-0.25,60.38-0.25h0.86l0.4,0.77
			c4.8,9.29,9.54,19.05,13.73,27.67c2.5,5.15,4.87,10.01,6.98,14.23L1273.56,289.71z M1187.54,208.25h-2.28l1.01-2.04
			c4.45-9.02,8.64-18.07,12.7-26.82c3.32-7.16,6.75-14.56,10.21-21.71l1.34-2.78l1.23,2.83c3.79,8.72,7.02,15.85,10.43,23.4
			c3.29,7.28,6.69,14.8,11.01,24.64l0.85,1.93l-2.11,0.05C1212.94,208.25,1200.6,208.25,1187.54,208.25z M1210.39,161.69
			c-3,6.25-5.97,12.66-8.85,18.88c-3.76,8.11-7.64,16.47-11.73,24.84c11.74,0,23.24-0.03,39.93-0.44
			c-3.91-8.89-7.08-15.89-10.15-22.68C1216.56,175.58,1213.67,169.18,1210.39,161.69z"/>
	</g>
	<g>
		<path d="M1438.61,275.83c8.38,0,9.61,5.91,9.61,9.86v1.23c-0.74,7.64-6.16,7.88-13.31,7.88h-88.95c-5.17,0-10.84-3.45-11.58-11.09
			v-91.66c0-22.92-0.25-42.87-0.25-51.25c0-7.39,2.71-11.33,9.61-11.33c7.64,0,10.6,3.94,10.6,11.09v135.27H1438.61z"/>
		<path d="M1434.92,296.22h-88.95c-5.68,0-12.17-3.87-12.99-12.37l-0.01-0.14v-91.66c0-14.28-0.1-27.58-0.17-37.3
			c-0.04-5.99-0.08-10.79-0.08-13.95c0-8.58,3.61-12.75,11.03-12.75c7.97,0,12.01,4.21,12.01,12.51v133.86h82.85
			c7.11,0,11.03,4,11.03,11.27l-0.01,1.37C1448.75,296.22,1441.4,296.22,1434.92,296.22z M1335.8,283.64
			c0.68,6.73,5.59,9.74,10.16,9.74h88.95c7.8,0,11.29-0.62,11.89-6.54v-1.16c0-5.68-2.68-8.44-8.19-8.44h-85.69V140.55
			c0-6.78-2.75-9.67-9.18-9.67c-5.74,0-8.19,2.97-8.19,9.92c0,3.15,0.04,7.95,0.08,13.93c0.07,9.72,0.17,23.03,0.17,37.32V283.64z"
			/>
	</g>
	<g>
		<path d="M1488.63,280.26v-93.14c0-16.02,0.25-32.28,0.25-49.77c0-4.19,2.96-7.88,8.62-7.88h1.23c4.93,0,9.12,2.71,9.12,7.64v61.6
			c0,28.09,0,56.92-0.25,88.7c-0.49,7.64-5.42,8.62-10.1,8.62C1488.63,296.03,1488.63,288.64,1488.63,280.26z"/>
		<path d="M1497.5,297.45c-10.29,0-10.29-8.74-10.29-17.19v-93.14c0-7.84,0.06-15.59,0.12-23.8c0.06-8.38,0.13-17.04,0.13-25.98
			c0-4.48,3.14-9.3,10.04-9.3h1.23c6.2,0,10.53,3.72,10.53,9.06v61.6c0,27.99,0,56.92-0.25,88.71
			C1508.37,297.45,1500.47,297.45,1497.5,297.45z M1497.5,130.88c-5.32,0-7.21,3.48-7.21,6.47c0,8.95-0.06,17.61-0.13,26
			c-0.06,8.2-0.12,15.95-0.12,23.78v93.14c0,9.17,0.35,14.35,7.45,14.35c5.07,0,8.3-1.22,8.69-7.3c0.24-31.7,0.24-60.63,0.24-88.61
			v-61.6c0-4.3-3.87-6.22-7.7-6.22H1497.5z"/>
	</g>
	<g>
		<path d="M1595.81,222.36c16.26,12.81,30.55,24.15,52.73,41.4l7.88,6.16c5.91,4.68,14.04,11.09,14.54,16.51
			c0,3.94-2.96,6.65-5.91,7.39c-0.74,0.25-1.72,0.25-2.46,0.25c-3.7,0-6.9-1.72-8.87-3.2c-23.9-17.99-50.76-38.93-68.99-53.47v42.38
			c0,12.81-0.25,17.49-11.58,17.49c-5.42-0.49-8.87-4.44-8.87-12.07V144c0-7.39,1.48-14.04,9.86-14.04
			c7.15,0,10.59,3.94,10.59,12.32v64.56c22.67-11.09,41.64-43.12,52.48-65.05c1.97-5.42,5.67-7.64,9.12-7.64
			c4.19,0,9.61,1.72,9.61,7.39c0,0.99-0.25,1.97-0.49,3.2c-4.19,15.28-21.44,42.63-36.96,58.64
			C1611.58,210.78,1604.19,216.69,1595.81,222.36z"/>
		<path d="M1573.14,298.68l-0.13-0.01c-6.46-0.59-10.16-5.5-10.16-13.48V144c0-4.23,0-15.46,11.27-15.46
			c7.97,0,12.01,4.62,12.01,13.74v62.22c20.88-11.48,38.51-40.53,49.76-63.28c1.96-5.32,5.85-8.5,10.42-8.5
			c5.09,0,11.03,2.31,11.03,8.81c0,0.96-0.19,1.89-0.4,2.87l-0.13,0.61c-4.25,15.52-21.69,43.21-37.33,59.35
			c-6.06,6.49-12.68,12.12-21.29,18.07l8.08,6.37c12.48,9.85,25.39,20.03,43.13,33.83l8,6.25c6.42,5.08,14.42,11.41,14.96,17.41
			l0.01,0.13c0,4.8-3.59,7.9-6.94,8.75c-0.95,0.3-2.05,0.3-2.86,0.3c-4.41,0-7.99-2.18-9.72-3.49
			c-24.24-18.24-49.89-38.28-66.72-51.66v39.44C1586.14,291.96,1586.14,298.68,1573.14,298.68z M1574.13,131.38
			c-5.99,0-8.44,3.66-8.44,12.63v141.19c0,4.53,1.31,10.06,7.52,10.66c9.73-0.01,10.1-3.1,10.1-16.08v-45.32l2.3,1.83
			c16.71,13.33,43.61,34.37,68.96,53.44c1.45,1.09,4.43,2.92,8.02,2.92c0.63,0,1.49,0,2.02-0.17l0.1-0.03
			c2.32-0.58,4.81-2.69,4.84-5.95c-0.5-4.78-8.56-11.15-13.89-15.38l-0.11-0.08l-7.88-6.15c-17.75-13.8-30.66-23.99-43.14-33.84
			l-11.11-8.76l1.61-1.09c9.21-6.23,16.13-12.02,22.43-18.77c15.4-15.88,32.5-43,36.63-58.05l0.11-0.53
			c0.19-0.91,0.34-1.63,0.34-2.29c0-5.69-6.83-5.97-8.19-5.97c-3.4,0-6.24,2.44-7.78,6.71l-0.06,0.14
			c-11.81,23.89-30.62,54.68-53.13,65.69l-2.04,1v-66.83C1583.3,134.74,1580.47,131.38,1574.13,131.38z"/>
	</g>
	<g>
		<path d="M1810.66,286.18c0,6.16-2.96,7.88-8.62,7.88h-75.64c-6.16,0-9.36-3.45-9.36-10.84c0.25-10.84,0.25-137,0.25-142.67
			c0.25-12.32,5.17-12.57,17-12.57h70.47c7.15,0,7.15,3.7,7.15,11.33c0,6.9-5.17,7.15-10.59,7.15h-64.56
			c-0.25,0-0.49,0.49-0.49,1.23v42.87h66.53c6.16,0.49,9.12,5.67,9.12,10.35c0,1.97-0.49,3.7-1.48,4.93
			c-1.97,3.45-7.88,3.45-11.33,3.45h-60.37c-2.46,0-2.96,0.25-2.96,4.44v62.34c0-0.25,0.25-0.25,66.03-0.25
			C1807.95,276.32,1810.66,280.51,1810.66,286.18z"/>
		<path d="M1802.04,295.48h-75.64c-4.92,0-10.78-2.13-10.78-12.26c0.24-10.55,0.25-129.17,0.25-142.67
			c0.28-13.98,7.11-13.98,18.42-13.98h70.47c8.56,0,8.56,5.35,8.56,12.75c0,8.56-7.23,8.56-12.01,8.56h-63.63v41.27l65.22,0
			c6.84,0.55,10.42,6.33,10.42,11.76c0,2.3-0.59,4.27-1.72,5.73c-2.42,4.07-8.73,4.07-12.51,4.07h-60.37c-0.27,0-1.11,0-1.3,0.1
			c-0.07,0.11-0.24,0.68-0.24,2.92v60.77c1.21-0.03,3.34-0.05,6.92-0.06c8.29-0.03,24.8-0.03,57.69-0.03l0.11,0
			c6.47,0.52,10.17,4.8,10.17,11.76C1812.08,294.42,1806.71,295.48,1802.04,295.48z M1734.28,129.41
			c-12.18,0-15.37,0.44-15.58,11.18c0,13.47-0.01,132.12-0.25,142.67c0,6.49,2.45,9.39,7.95,9.39h75.64c5.46,0,7.21-1.57,7.21-6.47
			c0-3.79-1.3-8.41-7.51-8.93c-54.79,0-64.66,0-65.6,0.14c0.43-0.07,1.04-0.56,1.04-1.32h-2.83v-62.34c0-4.39,0.63-5.85,4.37-5.85
			h60.37c2.98,0,8.54,0,10.1-2.74l0.12-0.18c0.76-0.95,1.17-2.35,1.17-4.04c0-3.99-2.43-8.48-7.76-8.93h-67.89V147.7
			c0-1.83,0.96-2.65,1.91-2.65h64.56c6.47,0,9.18-0.8,9.18-5.73c0-8.02-0.21-9.92-5.73-9.92H1734.28z"/>
	</g>
</g>
<g>
	<g>
		<g id="_x36_67_x2C__Heart_x2C__Love_x2C__Pen_x2C__Wedding">
			<g>
				<path d="M348.35,86.39c-16.38,0-30.35,13.49-30.35,30.36c0,175.88,0,169.13,0,170.09c0.48,0.96-0.97-1.45,20.72,43.85h-47.7
					c-1.45,0-2.89-1.45-2.89-2.89c0-8.19-6.75-14.94-14.94-14.94h-63.12c-3.38,0-6.27-2.89-6.27-6.27c0-3.37,2.89-6.26,6.27-6.26
					h58.78c10.6,0,19.76-8.67,19.76-19.76c0-11.08-9.16-19.76-20.24-19.76c-61.68,1.45-109.38,12.04-139.25-17.83
					c-16.87-16.86-16.87-43.85,0-60.23c13.97-13.97,27.94-15.9,53.97-7.23c4.82,1.45,9.15-2.89,7.71-7.71
					c-8.67-26.02-7.23-39.51,6.75-53.97c16.38-16.87,44.33-16.87,60.71-0.48c24.09,24.09,22.17,59.75,19.76,105.04v2.89
					c0,3.37,2.41,6.26,5.78,6.26c3.38,0,6.27-2.41,6.27-5.78c1.45-22.17,2.89-46.26,0-66.5c-2.89-21.68-10.12-37.58-23.13-50.59
					c-10.12-10.12-24.09-15.9-38.55-15.9c-17.35,0-33.25,7.71-44.81,22.65c-0.97-0.96-1.93-1.45-2.89-1.93
					c0.48-2.41,0.48-5.78-0.97-9.15c-3.38-7.23-12.05-10.6-19.27-7.23c-10.6,4.82-12.05,16.86-16.38,27.95
					c-0.97,2.89,0.48,6.75,3.37,7.71c9.64,3.86,17.35,8.67,26.02,8.19c-0.48,6.75,0.49,14.45,2.41,23.61
					c-22.16-5.78-39.03-2.89-55.41,13.49c-21.2,21.2-21.2,55.89,0,77.58c34.21,34.21,85.29,23.13,147.93,21.68
					c4.34,0,7.71,3.37,7.71,7.71c0,4.34-3.37,7.71-7.71,7.71h-58.3c-10.12,0-18.31,8.19-18.31,18.31c0,10.12,8.19,18.31,18.31,18.31
					h63.12c1.45,0,2.89,1.45,2.89,2.89c0,8.19,6.75,14.94,14.94,14.94c61.19,0,57.34,0,58.3,0c1.93-0.48,3.37-1.45,4.34-3.37
					c0,0,24.09-51.56,24.57-52.04c0.49-1.93,0,9.16,0.49-170.57C378.71,99.88,365.22,86.39,348.35,86.39z M157.05,120.6
					c2.89-8.19,3.86-13.97,7.71-15.9c1.45-0.48,2.89,0,3.37,1.45c0.48,0.97,0.48,1.45-1.45,4.34c-2.89,3.85-0.48,9.64,4.34,9.64
					c3.37,0,3.85,0.48,4.34,1.45c0.48,1.45,0,2.89-1.45,3.37c-0.97,0.48-1.45,0.48-2.41,0.48
					C168.14,125.9,162.35,123.01,157.05,120.6z M348.35,322.49l-14.46-31.32h29.39L348.35,322.49z M330.52,279.13V152.88h12.05
					v126.72h-12.05V279.13z M330.52,140.84v-6.27h36.14v6.27H330.52z M354.62,279.13V152.88h12.05v126.72h-12.05V279.13z
					 M348.35,98.43c10.12,0,18.31,8.19,18.31,18.31v6.26h-36.14v-6.26C330.52,106.63,338.23,98.43,348.35,98.43z"/>
				<path d="M161.87,288.28c3.46,0,6.26,2.8,6.26,6.27c0,3.46-2.8,6.26-6.26,6.26c-3.46,0-6.27-2.8-6.27-6.26
					C155.61,291.09,158.42,288.28,161.87,288.28z"/>
				<path d="M234.15,336.47c3.46,0,6.27,2.8,6.27,6.26c0,3.46-2.8,6.26-6.27,6.26c-3.46,0-6.26-2.8-6.26-6.26
					C227.89,339.27,230.69,336.47,234.15,336.47z"/>
				<path d="M282.34,233.83c3.46,0,6.27,2.81,6.27,6.27c0,3.46-2.81,6.26-6.27,6.26c-3.46,0-6.27-2.8-6.27-6.26
					C276.07,236.64,278.88,233.83,282.34,233.83z"/>
				<path d="M285.23,113.37l10.6,10.6c2.41,2.41,6.27,2.41,8.67,0c2.41-2.41,2.41-6.27,0-8.67l-6.26-6.26l6.26-6.27
					c2.41-2.41,2.41-6.26,0-8.67l-6.26-6.26l6.26-6.26c2.41-2.41,2.41-6.26,0-8.67c-2.41-2.41-6.26-2.41-8.67,0l-10.6,10.6
					c-2.41,2.41-2.41,6.26,0,8.67l6.27,6.26l-6.27,6.26C283.3,107.11,283.3,110.96,285.23,113.37z"/>
				<path d="M132.96,318.64l-5.78-1.45l4.34-4.34c3.38-3.37,1.45-9.16-2.89-10.12l-20.24-3.86c-3.37-0.48-6.26,1.45-7.23,4.82
					c-0.49,3.37,1.45,6.26,4.82,7.23l9.16,1.93l-3.86,3.85c-3.37,2.89-1.93,8.67,2.9,9.64c16.86,4.34,16.38,4.34,17.34,4.34
					c2.89,0,5.3-1.93,5.79-4.34C138.26,322.98,136.34,319.6,132.96,318.64z"/>
				<path d="M208.13,140.84c11.57-11.56,30.84-12.05,42.41-0.48c2.41,2.41,6.26,2.41,8.67,0c2.41-2.41,2.41-6.26,0-8.67
					c-16.38-16.38-43.37-16.38-59.75,0.48c-2.41,2.41-2.41,6.26,0,8.67c0.96,0.96,2.89,1.93,4.34,1.93
					C205.24,142.28,207.17,141.8,208.13,140.84z"/>
				<path d="M173.92,318.64c-10.12,0-18.31,8.19-18.31,18.31c0,10.12,8.19,18.31,18.31,18.31c10.12,0,18.31-8.19,18.31-18.31
					C192.23,326.83,183.56,318.64,173.92,318.64z M173.92,342.73c-3.38,0-6.27-2.89-6.27-6.26c0-3.37,2.89-6.27,6.27-6.27
					c3.37,0,6.26,2.89,6.26,6.27C179.7,339.84,177.29,342.73,173.92,342.73z"/>
				<path d="M119.47,143.73c3.46,0,6.27,2.8,6.27,6.26c0,3.46-2.81,6.27-6.27,6.27c-3.46,0-6.26-2.81-6.26-6.27
					C113.21,146.53,116.01,143.73,119.47,143.73z"/>
				<path d="M127.18,118.19c2.89,0.96,6.75-0.48,7.71-3.37c4.82-12.05,12.05-22.65,7.23-34.21c-2.41-5.3-8.19-9.15-13.97-9.15
					c-5.3,0-11.08,2.89-13.49,8.19c-3.38-0.96-6.75-0.48-9.64,0.96c-7.71,3.38-11.09,12.53-7.71,20.24
					c3.86,8.67,12.53,11.57,21.68,14.46C121.4,116.26,124.29,117.23,127.18,118.19z M107.91,96.02c-0.97-1.45,0-3.85,1.45-4.34
					c0.48-0.48,0.97-0.48,1.45-0.48c0.97,0,1.93,0.48,3.86,1.93c3.86,2.89,9.64,0.48,9.64-4.34c0-4.34,0.97-4.34,1.93-4.82
					c1.93-0.96,3.86,0,4.34,1.45c1.93,4.82-1.45,10.6-5.3,19.76c-1.45-0.48-2.41-0.97-3.38-0.97
					C114.17,101.33,109.35,99.88,107.91,96.02z"/>
				<path d="M149.83,210.22h42.4c3.38,0,6.27-2.89,6.27-6.26c0-3.37-2.89-6.26-6.27-6.26h-42.4c-3.38,0-6.27,2.89-6.27,6.26
					C143.56,207.33,146.45,210.22,149.83,210.22z"/>
				<path d="M149.83,228.05h66.49c3.38,0,6.27-2.89,6.27-6.26c0-3.37-2.89-6.27-6.27-6.27h-66.49c-3.38,0-6.27,2.89-6.27,6.27
					C143.56,225.16,146.45,228.05,149.83,228.05z"/>
				<path d="M149.83,246.36h108.41c3.38,0,6.27-2.89,6.27-6.26c0-3.37-2.89-6.27-6.27-6.27H149.83c-3.38,0-6.27,2.89-6.27,6.27
					C143.56,243.47,146.45,246.36,149.83,246.36z"/>
			</g>
		</g>
	</g>
</g>
</svg>
